<svg id="Layer_1" data-name="Layer 1" xmlns="http://www.w3.org/2000/svg" width="5in" height="1in" viewBox="0 0 360 72"><defs><style>.cls-1{fill:#fff;}.cls-2{fill:#b9c422;}</style></defs><title>Artboard 1</title><path class="cls-1" d="M22.33,37.6h-6l-1.4,10.34H11.53L17,10.61h4.65l5.48,37.34H23.73ZM19.39,13.19h-.1L16.7,34.7H22Z"/><path class="cls-1" d="M38.64,10.61H42V42.93c0,4.14-3.1,5.33-6.05,5.33s-5.95-1.19-5.95-5.33V10.61h3.41V41.84c0,2.69.88,3.52,2.59,3.52s2.59-.83,2.59-3.52Z"/><path class="cls-1" d="M55.7,32.27C55.7,30.46,54.62,30,53,30H50.74V47.94H47.32V10.61h6.36c3.26,0,5.27.57,5.27,4.29v9.46c0,2.9-1.09,3.88-3.72,4v.1c2.43.16,3.88.88,3.88,3.46v16H55.7ZM53,27.1c1.6,0,2.53-.47,2.53-2.69V16c0-2.17-1.14-2.53-2.9-2.53H50.74V27.1Z"/><path class="cls-1" d="M64.54,16.6c0-3.67,1.4-6.31,6-6.31s6,2.64,6,6.31V41.94c0,3.67-1.4,6.31-6,6.31s-6-2.64-6-6.31ZM68,41.84c0,2.07.41,3.52,2.59,3.52s2.59-1.45,2.59-3.52V16.71c0-2.07-.41-3.52-2.59-3.52S68,14.64,68,16.71Z"/><path class="cls-1" d="M90.2,32.27c0-1.81-1.09-2.27-2.69-2.27H85.23V47.94H81.82V10.61h6.36c3.26,0,5.27.57,5.27,4.29v9.46c0,2.9-1.09,3.88-3.72,4v.1c2.43.16,3.88.88,3.88,3.46v16H90.2ZM87.51,27.1c1.6,0,2.53-.47,2.53-2.69V16c0-2.17-1.14-2.53-2.9-2.53H85.23V27.1Z"/><path class="cls-1" d="M108,37.6h-6l-1.4,10.34H97.18l5.48-37.34h4.65l5.48,37.34h-3.41ZM105,13.19h-.1L102.35,34.7h5.27Z"/><path class="cls-1" d="M123.34,10.61h9v2.9h-5.64V27.1h5.38V30h-5.38V47.94h-3.41Z"/><path class="cls-1" d="M144.24,37.6h-6l-1.4,10.34h-3.41l5.48-37.34h4.65l5.48,37.34h-3.41ZM141.3,13.19h-.1L138.61,34.7h5.27Z"/><path class="cls-1" d="M165.19,10.61h5.27V47.94h-3V13.5h-.1l-3.93,34.44h-4.24L155.26,13.5h-.1V47.94h-3V10.61h5.27L161.26,44h.1Z"/><path class="cls-1" d="M175.43,10.61h3.41V47.94h-3.41Z"/><path class="cls-1" d="M184.12,10.61h3.41V45h5.64v2.9h-9Z"/><path class="cls-1" d="M201.54,10.61H205l-5,21.1V47.94h-3.41V31.7l-5-21.1h3.41l3.26,17h.1Z"/><path class="cls-1" d="M215.35,10.61h5.84c4.65,0,5.79,2.38,5.79,6.05V41.89c0,3.67-1.14,6.05-5.79,6.05h-5.84ZM220.58,45c2.28,0,3-.72,3-2.9V16.4c0-2.17-.72-2.9-3-2.9h-1.81V45Z"/><path class="cls-1" d="M232.42,10.61h9v2.9h-5.64V27.1h5.38V30h-5.38V45h5.64v2.9h-9Z"/><path class="cls-1" d="M254.91,10.61h3V47.94h-4.86l-4.29-33.2h-.1v33.2h-3V10.61h5l4.19,32h.1Z"/><path class="cls-1" d="M265.41,13.5h-3.83v-2.9h11.07v2.9h-3.83V47.94h-3.41Z"/><path class="cls-1" d="M276.48,10.61h3.41V47.94h-3.41Z"/><path class="cls-1" d="M291.73,15.73c0-1.45-.36-2.53-2-2.53s-2,1.09-2,2.53v3.93a6.71,6.71,0,0,0,.78,3.36L294,32.32a9,9,0,0,1,1.24,4.55v5.9c0,3.52-2.07,5.48-5.48,5.48-3.77,0-5.58-1.71-5.58-5.48V37.65h3.41v4.91c0,1.76.67,2.79,2.17,2.79s2.07-1,2.07-2.79V37.34a6.66,6.66,0,0,0-1-3.57l-5-8.74a8.59,8.59,0,0,1-1.45-4.76v-4.5c0-3.67,1.91-5.48,5.38-5.48,3.83,0,5.38,1.81,5.38,5.22v4.76h-3.41Z"/><path class="cls-1" d="M301.92,13.5H298.1v-2.9h11.07v2.9h-3.83V47.94h-3.41Z"/><path class="cls-1" d="M321.37,32.27c0-1.81-1.09-2.27-2.69-2.27H316.4V47.94H313V10.61h6.36c3.26,0,5.27.57,5.27,4.29v9.46c0,2.9-1.09,3.88-3.72,4v.1c2.43.16,3.88.88,3.88,3.46v16h-3.41Zm-2.69-5.17c1.6,0,2.53-.47,2.53-2.69V16c0-2.17-1.14-2.53-2.9-2.53H316.4V27.1Z"/><path class="cls-1" d="M337.15,10.61h3.41l-5,21.1V47.94h-3.41V31.7l-5-21.1h3.41l3.26,17h.1Z"/><path class="cls-2" d="M337.5,43h.72c.58,0,.76.19.76.76v1.22c0,.56-.17.76-.76.76H338v2.24h-.45Zm.67,2.35c.21,0,.35-.05.35-.31V43.67c0-.25-.14-.31-.35-.31H338v2Z"/><path class="cls-2" d="M340.38,43.63c0-.21-.08-.32-.25-.32s-.25.1-.25.32v3.65c0,.21.08.32.25.32s.25-.1.25-.32v-.7h.45v.71a.71.71,0,0,1-1.42,0V43.62a.71.71,0,0,1,1.42,0v.65h-.45Z"/><rect class="cls-1" x="10.75" y="5.12" width="330.25" height="1.25"/><rect class="cls-1" x="10.75" y="52.12" width="330.08" height="1.25"/><path class="cls-2" d="M14.81,60.79a2.17,2.17,0,0,0-1.31-.37,3.13,3.13,0,0,0-.63.06,1.7,1.7,0,0,0-.55.21,1.14,1.14,0,0,0-.39.4,1.25,1.25,0,0,0-.14.63.8.8,0,0,0,.21.57,1.54,1.54,0,0,0,.56.36,4.69,4.69,0,0,0,.79.23l.9.2q.46.11.9.25a3,3,0,0,1,.79.39,1.87,1.87,0,0,1,.56.62,2.19,2.19,0,0,1-.06,2,2.25,2.25,0,0,1-.7.71,3.08,3.08,0,0,1-1,.4,4.68,4.68,0,0,1-1.06.12,4.5,4.5,0,0,1-1.22-.16,3,3,0,0,1-1-.49,2.31,2.31,0,0,1-.69-.84,2.69,2.69,0,0,1-.25-1.21h1a1.73,1.73,0,0,0,.19.83,1.7,1.7,0,0,0,.49.58,2.08,2.08,0,0,0,.71.33,3.3,3.3,0,0,0,.84.11,3.81,3.81,0,0,0,.69-.06,2,2,0,0,0,.63-.22,1.18,1.18,0,0,0,.62-1.11,1,1,0,0,0-.21-.64,1.54,1.54,0,0,0-.56-.4,4,4,0,0,0-.79-.25l-.9-.2q-.46-.1-.9-.24a3.23,3.23,0,0,1-.79-.36,1.69,1.69,0,0,1-.56-.57,1.68,1.68,0,0,1-.21-.87,2,2,0,0,1,.24-1,2.06,2.06,0,0,1,.63-.7,2.83,2.83,0,0,1,.89-.41,4,4,0,0,1,1-.13,4.11,4.11,0,0,1,1.1.14,2.48,2.48,0,0,1,.89.44,2.14,2.14,0,0,1,.6.76A2.7,2.7,0,0,1,16.37,62h-1A1.6,1.6,0,0,0,14.81,60.79Z"/><path class="cls-2" d="M23,60.82a2.38,2.38,0,0,0-1.39-.41,2.49,2.49,0,0,0-1.18.26,2.32,2.32,0,0,0-.81.69,3,3,0,0,0-.47,1A4.43,4.43,0,0,0,19,63.52a5,5,0,0,0,.15,1.24,3,3,0,0,0,.47,1,2.31,2.31,0,0,0,.81.69,2.52,2.52,0,0,0,1.18.26,2.27,2.27,0,0,0,.9-.17,2,2,0,0,0,.68-.46,2.13,2.13,0,0,0,.45-.7,2.92,2.92,0,0,0,.19-.88h1a3.49,3.49,0,0,1-1,2.26,3.23,3.23,0,0,1-2.32.81A3.68,3.68,0,0,1,20,67.28a3.05,3.05,0,0,1-1.11-.84,3.62,3.62,0,0,1-.66-1.27A5.4,5.4,0,0,1,18,63.6,5.13,5.13,0,0,1,18.26,62,3.8,3.8,0,0,1,19,60.74a3.23,3.23,0,0,1,1.14-.86,3.66,3.66,0,0,1,1.56-.32,4,4,0,0,1,1.14.16,3.05,3.05,0,0,1,1,.47,2.67,2.67,0,0,1,.7.78A2.86,2.86,0,0,1,24.82,62h-1A1.9,1.9,0,0,0,23,60.82Z"/><path class="cls-2" d="M26.43,62.06a3.82,3.82,0,0,1,.69-1.28,3.38,3.38,0,0,1,1.15-.89,4,4,0,0,1,3.2,0,3.38,3.38,0,0,1,1.15.89,3.82,3.82,0,0,1,.69,1.28,5.05,5.05,0,0,1,0,3,3.82,3.82,0,0,1-.69,1.28,3.32,3.32,0,0,1-1.15.89,4.07,4.07,0,0,1-3.2,0,3.32,3.32,0,0,1-1.15-.89,3.82,3.82,0,0,1-.69-1.28,5,5,0,0,1,0-3Zm.94,2.65a3.12,3.12,0,0,0,.47,1,2.41,2.41,0,0,0,.83.72,2.78,2.78,0,0,0,2.41,0,2.42,2.42,0,0,0,.83-.72,3.12,3.12,0,0,0,.47-1,4.42,4.42,0,0,0,0-2.29,3.12,3.12,0,0,0-.47-1,2.42,2.42,0,0,0-.83-.72,2.77,2.77,0,0,0-2.41,0,2.41,2.41,0,0,0-.83.72,3.11,3.11,0,0,0-.47,1,4.43,4.43,0,0,0,0,2.29Z"/><path class="cls-2" d="M34.46,60.6v-.86h6.14v.86H38v6.81H37V60.6Z"/><path class="cls-2" d="M41.1,60.6v-.86h6.14v.86H44.67v6.81h-1V60.6Z"/><path class="cls-2" d="M53,59.74v6.81h4.06v.86H52V59.74Z"/><path class="cls-2" d="M60.44,67.41h-1V64.27l-3-4.53h1.21L60,63.39l2.25-3.65h1.16l-2.93,4.53Z"/><path class="cls-2" d="M65.72,59.74v3.83l3.89-3.83h1.32L67.7,62.83l3.36,4.58H69.77L67,63.53l-1.28,1.19v2.69h-1V59.74Z"/><path class="cls-2" d="M77.64,59.74v.86H73.36V63h4v.86h-4v2.65h4.31v.86H72.34V59.74Z"/><path class="cls-2" d="M80.21,66.46v.87a1.54,1.54,0,0,1-.22.84,1.22,1.22,0,0,1-.72.5v-.43a.65.65,0,0,0,.25-.15.89.89,0,0,0,.16-.21.82.82,0,0,0,.08-.24.87.87,0,0,0,0-.22h-.51v-1Z"/><path class="cls-2" d="M86.85,61.27A3.06,3.06,0,0,1,89,62a2.89,2.89,0,0,1,.77,2.2,5,5,0,0,1-.17,1.37,2.56,2.56,0,0,1-.53,1,2.31,2.31,0,0,1-.92.62,3.68,3.68,0,0,1-1.32.21H84.75V61.27Zm.07,5.45.34,0a1.94,1.94,0,0,0,.44-.1,2,2,0,0,0,.46-.24,1.55,1.55,0,0,0,.41-.42,2.35,2.35,0,0,0,.3-.67,3.51,3.51,0,0,0,.12-1,4.09,4.09,0,0,0-.11-1,1.88,1.88,0,0,0-.35-.74,1.54,1.54,0,0,0-.63-.46,2.53,2.53,0,0,0-1-.16H85.56v4.76Z"/><path class="cls-2" d="M92.31,61.27l1.93,5.16,1.94-5.16h1.12v6.14h-.77V62.3h0L94.6,67.41h-.7L92,62.3h0v5.11h-.77V61.27Z"/><path class="cls-2" d="M101.15,61.27a3.06,3.06,0,0,1,2.18.72,2.89,2.89,0,0,1,.77,2.2,5,5,0,0,1-.17,1.37,2.56,2.56,0,0,1-.53,1,2.31,2.31,0,0,1-.92.62,3.68,3.68,0,0,1-1.32.21H99V61.27Zm.07,5.45.34,0a1.94,1.94,0,0,0,.44-.1,2,2,0,0,0,.46-.24,1.55,1.55,0,0,0,.41-.42,2.35,2.35,0,0,0,.3-.67,3.51,3.51,0,0,0,.12-1,4.09,4.09,0,0,0-.11-1,1.88,1.88,0,0,0-.35-.74,1.54,1.54,0,0,0-.63-.46,2.53,2.53,0,0,0-1-.16H99.86v4.76Z"/><path class="cls-2" d="M109.82,59V69.7h-.73V59Z"/><path class="cls-2" d="M119.21,66.26a1.74,1.74,0,0,1-.38.67,1.85,1.85,0,0,1-.7.47,2.86,2.86,0,0,1-1.08.18A2.28,2.28,0,0,1,115.4,67a2.21,2.21,0,0,1-.58-1.66v-.47h1v.32a3.23,3.23,0,0,0,.05.61,1.33,1.33,0,0,0,.19.48.89.89,0,0,0,.38.32,1.46,1.46,0,0,0,.62.11,1.1,1.1,0,0,0,1-.38,1.73,1.73,0,0,0,.26-1V59.74h1V65.5A2.64,2.64,0,0,1,119.21,66.26Z"/><path class="cls-2" d="M124.68,59.74l3,7.67h-1.13l-.84-2.31h-3.25l-.86,2.31h-1l3-7.67Zm.71,4.5-1.28-3.58h0l-1.3,3.58Z"/><path class="cls-2" d="M130,59.74v7.67h-1V59.74Z"/><path class="cls-2" d="M133.58,59.74,136,66.19l2.43-6.45h1.4v7.67h-1V61h0l-2.4,6.38h-.87L133.17,61h0v6.38h-1V59.74Z"/><path class="cls-2" d="M143.05,59.74v7.67h-1V59.74Z"/><path class="cls-2" d="M150.54,59.74v.86h-4.28V63h4v.86h-4v2.65h4.31v.86h-5.33V59.74Z"/><path class="cls-2" d="M156.76,59.74v6.81h4.06v.86h-5.08V59.74Z"/><path class="cls-2" d="M164.17,67.41h-1V64.27l-3-4.53h1.21l2.3,3.65,2.25-3.65h1.16l-2.93,4.53Z"/><path class="cls-2" d="M169.45,59.74v3.83l3.89-3.83h1.32l-3.23,3.09,3.36,4.58H173.5l-2.77-3.88-1.28,1.19v2.69h-1V59.74Z"/><path class="cls-2" d="M181.37,59.74v.86h-4.28V63h4v.86h-4v2.65h4.31v.86h-5.33V59.74Z"/><path class="cls-2" d="M183.94,66.46v.87a1.55,1.55,0,0,1-.22.84,1.22,1.22,0,0,1-.72.5v-.43a.64.64,0,0,0,.25-.15.87.87,0,0,0,.16-.21.84.84,0,0,0,.08-.24.9.9,0,0,0,0-.22H183v-1Z"/><path class="cls-2" d="M190.58,61.27a3.06,3.06,0,0,1,2.18.72,2.89,2.89,0,0,1,.76,2.2,5,5,0,0,1-.17,1.37,2.56,2.56,0,0,1-.53,1,2.32,2.32,0,0,1-.92.62,3.68,3.68,0,0,1-1.32.21h-2.11V61.27Zm.07,5.45.34,0a2,2,0,0,0,.44-.1,2,2,0,0,0,.46-.24,1.56,1.56,0,0,0,.41-.42,2.35,2.35,0,0,0,.3-.67,3.51,3.51,0,0,0,.12-1,4.12,4.12,0,0,0-.11-1,1.88,1.88,0,0,0-.35-.74,1.55,1.55,0,0,0-.63-.46,2.53,2.53,0,0,0-1-.16h-1.37v4.76Z"/><path class="cls-2" d="M196,61.27,198,66.43l1.94-5.16H201v6.14h-.77V62.3h0l-1.92,5.11h-.7l-1.92-5.11h0v5.11h-.77V61.27Z"/><path class="cls-2" d="M204.88,61.27a3.06,3.06,0,0,1,2.18.72,2.89,2.89,0,0,1,.76,2.2,5,5,0,0,1-.17,1.37,2.56,2.56,0,0,1-.53,1,2.32,2.32,0,0,1-.92.62,3.68,3.68,0,0,1-1.32.21h-2.11V61.27Zm.07,5.45.34,0a2,2,0,0,0,.44-.1,2,2,0,0,0,.46-.24,1.56,1.56,0,0,0,.41-.42,2.35,2.35,0,0,0,.3-.67,3.51,3.51,0,0,0,.12-1,4.12,4.12,0,0,0-.11-1,1.88,1.88,0,0,0-.35-.74,1.55,1.55,0,0,0-.63-.46,2.53,2.53,0,0,0-1-.16h-1.37v4.76Z"/><path class="cls-2" d="M213.55,59V69.7h-.73V59Z"/><path class="cls-2" d="M222.51,59.74a2.38,2.38,0,0,1,1.76.6,2.64,2.64,0,0,1,0,3.35,2.33,2.33,0,0,1-1.76.59h-2.34v3.14h-1V59.74Zm-.34,3.67a1.83,1.83,0,0,0,1.27-.35,1.35,1.35,0,0,0,.4-1.05,1.33,1.33,0,0,0-.4-1,1.88,1.88,0,0,0-1.27-.36h-2v2.82Z"/><path class="cls-2" d="M229,59.74l3,7.67h-1.13L230,65.1h-3.25l-.86,2.31h-1l3-7.67Zm.71,4.5-1.28-3.58h0l-1.3,3.58Z"/><path class="cls-2" d="M238.56,66.85a3.14,3.14,0,0,1-2.24.74,3.48,3.48,0,0,1-2.32-.7,2.77,2.77,0,0,1-.83-2.24v-4.9h1v4.9a2.08,2.08,0,0,0,.55,1.56,2.18,2.18,0,0,0,1.58.53,2,2,0,0,0,1.49-.53,2.18,2.18,0,0,0,.51-1.56v-4.9h1v4.9A2.89,2.89,0,0,1,238.56,66.85Z"/><path class="cls-2" d="M242.47,59.74v6.81h4.06v.86h-5.08V59.74Z"/><path class="cls-2" d="M254.14,59.74h.53l.56,0a4.17,4.17,0,0,1,.52.08,1.32,1.32,0,0,1,.41.16,2,2,0,0,1,.64.62,1.73,1.73,0,0,1,.26,1,1.87,1.87,0,0,1-.3,1.06,1.74,1.74,0,0,1-.84.66v0A1.77,1.77,0,0,1,257,64a1.93,1.93,0,0,1,.38,1.2,2.31,2.31,0,0,1-.15.82,2,2,0,0,1-.45.7,2.23,2.23,0,0,1-.73.49,2.5,2.5,0,0,1-1,.19h-3.71V59.74Zm.28,3.3a2,2,0,0,0,1.25-.31,1.11,1.11,0,0,0,.38-.92,1.36,1.36,0,0,0-.13-.65.92.92,0,0,0-.35-.37,1.4,1.4,0,0,0-.52-.17,5,5,0,0,0-.63,0h-2V63Zm.52,3.51a1.47,1.47,0,0,0,1.06-.37,1.33,1.33,0,0,0,.38-1,1.25,1.25,0,0,0-.14-.62,1.08,1.08,0,0,0-.37-.39,1.54,1.54,0,0,0-.53-.2,3.17,3.17,0,0,0-.62-.06h-2.33v2.65Z"/><path class="cls-2" d="M260.26,59.74v7.67h-1V59.74Z"/><path class="cls-2" d="M267.75,59.74v.86h-4.28V63h4v.86h-4v2.65h4.31v.86h-5.33V59.74Z"/><path class="cls-2" d="M272.12,59.74a3.83,3.83,0,0,1,2.73.9,3.62,3.62,0,0,1,1,2.75,6.24,6.24,0,0,1-.21,1.71,3.2,3.2,0,0,1-.67,1.26,2.88,2.88,0,0,1-1.15.78,4.61,4.61,0,0,1-1.65.27h-2.63V59.74Zm.09,6.81.43,0a2.37,2.37,0,0,0,.55-.13,2.49,2.49,0,0,0,.58-.29,2,2,0,0,0,.51-.53,2.93,2.93,0,0,0,.37-.83,4.38,4.38,0,0,0,.15-1.21,5.13,5.13,0,0,0-.13-1.23,2.36,2.36,0,0,0-.44-.92,1.94,1.94,0,0,0-.79-.58,3.14,3.14,0,0,0-1.19-.2h-1.72v6Z"/><path class="cls-2" d="M282.82,59.74v.86h-4.28V63h4v.86h-4v2.65h4.31v.86h-5.33V59.74Z"/><path class="cls-2" d="M288.17,59.74a2.53,2.53,0,0,1,1.71.54,1.85,1.85,0,0,1,.62,1.47,2.33,2.33,0,0,1-.32,1.22,1.63,1.63,0,0,1-1,.72v0a1.36,1.36,0,0,1,.54.21,1.18,1.18,0,0,1,.33.36,1.63,1.63,0,0,1,.18.47,5.06,5.06,0,0,1,.09.54q0,.28,0,.57a4.74,4.74,0,0,0,.05.57,3.42,3.42,0,0,0,.12.53,1.31,1.31,0,0,0,.24.45h-1.14a.64.64,0,0,1-.15-.32,3.34,3.34,0,0,1,0-.46l0-.54a3.66,3.66,0,0,0-.06-.57c0-.19-.06-.36-.11-.53a1.24,1.24,0,0,0-.2-.44,1,1,0,0,0-.37-.3,1.35,1.35,0,0,0-.6-.11h-2.49v3.28h-1V59.74Zm.21,3.48A1.47,1.47,0,0,0,289,63a1.14,1.14,0,0,0,.39-.42,1.4,1.4,0,0,0,.15-.68,1.38,1.38,0,0,0-.32-.95,1.33,1.33,0,0,0-1-.37h-2.54v2.68h2.13A4.07,4.07,0,0,0,288.39,63.22Z"/><path class="cls-2" d="M293.81,59.74l2.42,6.45,2.43-6.45h1.4v7.67h-1V61h0l-2.4,6.38h-.87L293.41,61h0v6.38h-1V59.74Z"/><path class="cls-2" d="M305.44,59.74l3,7.67h-1.13l-.84-2.31h-3.25l-.86,2.31h-1l3-7.67Zm.71,4.5-1.28-3.58h0l-1.3,3.58Z"/><path class="cls-2" d="M310.74,59.74l4,6.22h0V59.74h1v7.67h-1.12l-4-6.16h0v6.16h-1V59.74Z"/><path class="cls-2" d="M318.72,66.46v.87a1.55,1.55,0,0,1-.22.84,1.22,1.22,0,0,1-.72.5v-.43a.64.64,0,0,0,.25-.15.87.87,0,0,0,.16-.21.84.84,0,0,0,.08-.24.89.89,0,0,0,0-.22h-.51v-1Z"/><path class="cls-2" d="M325.37,61.27a3.06,3.06,0,0,1,2.18.72,2.89,2.89,0,0,1,.76,2.2,5,5,0,0,1-.17,1.37,2.56,2.56,0,0,1-.53,1,2.32,2.32,0,0,1-.92.62,3.68,3.68,0,0,1-1.32.21h-2.11V61.27Zm.07,5.45.34,0a2,2,0,0,0,.44-.1,2,2,0,0,0,.46-.24,1.56,1.56,0,0,0,.41-.42,2.35,2.35,0,0,0,.3-.67,3.51,3.51,0,0,0,.12-1,4.12,4.12,0,0,0-.11-1,1.88,1.88,0,0,0-.35-.74,1.55,1.55,0,0,0-.63-.46,2.53,2.53,0,0,0-1-.16h-1.37v4.76Z"/><path class="cls-2" d="M331.8,61.27A3.06,3.06,0,0,1,334,62a2.89,2.89,0,0,1,.76,2.2,4.94,4.94,0,0,1-.17,1.37,2.56,2.56,0,0,1-.53,1,2.32,2.32,0,0,1-.92.62,3.68,3.68,0,0,1-1.32.21h-2.11V61.27Zm.07,5.45.34,0a2,2,0,0,0,.44-.1,2,2,0,0,0,.46-.24,1.56,1.56,0,0,0,.41-.42,2.35,2.35,0,0,0,.3-.67,3.52,3.52,0,0,0,.12-1,4.12,4.12,0,0,0-.11-1,1.88,1.88,0,0,0-.35-.74,1.55,1.55,0,0,0-.63-.46,2.53,2.53,0,0,0-1-.16h-1.37v4.76Z"/><path class="cls-2" d="M339.19,62.11a1.73,1.73,0,0,0-1-.3,2.44,2.44,0,0,0-.51.05,1.32,1.32,0,0,0-.44.17.91.91,0,0,0-.31.32,1,1,0,0,0-.12.5.64.64,0,0,0,.17.46,1.25,1.25,0,0,0,.45.29,3.71,3.71,0,0,0,.63.19l.72.16q.36.09.72.2a2.41,2.41,0,0,1,.63.31,1.51,1.51,0,0,1,.45.5,1.75,1.75,0,0,1-.05,1.59,1.81,1.81,0,0,1-.56.57,2.45,2.45,0,0,1-.77.32,3.75,3.75,0,0,1-.85.1,3.6,3.6,0,0,1-1-.13,2.41,2.41,0,0,1-.81-.39,1.84,1.84,0,0,1-.55-.67,2.16,2.16,0,0,1-.2-1h.77a1.33,1.33,0,0,0,.55,1.13,1.65,1.65,0,0,0,.57.27,2.61,2.61,0,0,0,.67.09,3.06,3.06,0,0,0,.55-.05,1.65,1.65,0,0,0,.5-.18.94.94,0,0,0,.5-.89.77.77,0,0,0-.17-.52,1.23,1.23,0,0,0-.45-.32,3.31,3.31,0,0,0-.63-.2l-.72-.16c-.24-.05-.48-.12-.72-.19a2.62,2.62,0,0,1-.63-.28,1.27,1.27,0,0,1-.62-1.16,1.63,1.63,0,0,1,.19-.8,1.66,1.66,0,0,1,.5-.56,2.25,2.25,0,0,1,.71-.33,3.13,3.13,0,0,1,.82-.11,3.29,3.29,0,0,1,.88.11,2,2,0,0,1,.71.35,1.7,1.7,0,0,1,.48.61,2.18,2.18,0,0,1,.19.87h-.77A1.28,1.28,0,0,0,339.19,62.11Z"/></svg>